<?xml version="1.0" encoding="utf-8"?>
<!-- Generator: Adobe Illustrator 23.1.0, SVG Export Plug-In . SVG Version: 6.00 Build 0)  -->
<svg version="1.1" id="Capa_1" xmlns="http://www.w3.org/2000/svg" xmlns:xlink="http://www.w3.org/1999/xlink" x="0px" y="0px"
	 viewBox="0 0 1200 1200" enable-background="new 0 0 1200 1200" xml:space="preserve">
<g>
	<path fill="#94582E" d="M929.286,579.186c4.715-16.433,16.491-71.331-21.498-113.154c1.44-17.611,2.07-74.947-43.535-120.18
		c-3.428-14.513-19.568-71.341-67.287-99.577c-6.768-14.305-35.807-69.18-88.877-83.505c-9.811-12.964-48.287-59.586-100.51-68.941
		c-10.986-13.627-53.083-56.869-133.867-39.967c-6.776,1.417-10.307,9.046-7.094,15.15c0.099,0.187,9.947,19.238,2.478,34.51
		c-5.175,10.577-17.886,17.743-37.792,21.298c-4.722,0.841-8.266,4.79-8.596,9.576c-1.375,19.949-7.769,34.353-19.01,42.81
		c-18.302,13.777-44.464,8.351-44.696,8.3c-5.093-1.117-10.203,1.644-12.045,6.499c-7.554,19.915-17.614,31.633-29.894,34.823
		c-19.759,5.153-40.862-12.378-41.113-12.588c-7.318-6.111-19.031,0.697-17.012,10.144c16.259,76.077,36.757,172.617,58.5,275.017
		c45.649,215.005,97.392,458.691,126.223,589.708c6.233,28.331,32.266,52.005,64.781,58.909c6.274,1.334,12.474,1.985,18.53,1.985
		c23.115,0,44.11-9.508,58.888-27.047c31.97-1.566,86.617-17.635,100.935-69.759c20.31-4.252,76.407-20.532,87.526-72.043
		c17.492-5.961,61.915-26.523,69.122-83.022c21.39-11.677,52.883-42.047,50.966-92.305c11.459-12.055,43.763-52.315,29.451-110.706
		C931.717,680.33,955.53,628.012,929.286,579.186z M658.781,251.958c-2.295,0.144-4.706-0.59-6.928-2.561
		c-11.366-10.062-19.032-16.26-19.139-16.344c-10.266-8.106,2.303-25.002,13.131-16.28c0.327,0.259,8.089,6.53,19.863,16.957
		C673.267,240.424,666.726,251.459,658.781,251.958z M799.905,483.365c-4.604,0.24-9.214-2.186-10.281-8.128
		c-12.332-68.678-43.902-130.934-91.688-181.463c-9.102-9.626,5.758-24.356,15.196-14.375
		c50.507,53.415,84.177,119.606,97.079,192.146C811.459,478.563,805.685,483.064,799.905,483.365z"/>
	<path fill="#FCE279" d="M852.899,364.231c36.289,39.009,34.993,88.142,33.956,100.816c-9.821-1.364-23.845-1.028-41.486,5.362
		c-6.556-33.232-15.369-65.051-26.607-93.492C833.702,363.217,846.585,363.079,852.899,364.231z M847.964,484.347
		c4.987,28.216,8.409,57.214,10.366,85.821c21.878-1.991,39.394,1.252,50.475,4.451c3.186-10.805,14.994-59.123-16.12-94.071
		C886.316,478.383,871.017,475.419,847.964,484.347z M667.911,1042.144c0.079-0.413,0.206-0.806,0.331-1.199
		c0.741-10.145,0.534-24.73-3.646-40.972c-12.576,8.722-24.739,15.983-36.087,21.446c-9.681,4.661-19.196,8.845-28.514,12.558
		c0.602,32.071-4.655,53.788-10.239,67.619C610.267,1099.485,658.805,1089.495,667.911,1042.144z M676.606,991.265
		c4.683,15.575,6.028,29.944,5.954,41.401c16.799-3.626,65.08-17.615,71.878-59.173c0.567-10.583-0.472-27.447-9.286-44.565
		C722.89,952.842,699.306,974.202,676.606,991.265z M703.682,183.275c-5.205,2.778-16.645,9.905-22.032,21.286
		c26.609,22.035,49.826,44.133,69.57,66.152c9.493-9.229,19.081-13.908,26.438-16.276
		C771.405,241.641,746.218,195.432,703.682,183.275z M904.318,703.638c-5.374-5.196-19.342-15.953-45.917-20.699
		c-2.032,27.719-5.633,52.999-10.67,74.259c15.372,6.901,26.675,20.75,33.73,31.826
		C891.541,777.621,913.363,746.977,904.318,703.638z M911.416,590.154c-8.07-2.966-27.021-8.404-52.247-6.055
		c1.533,29.353,1.528,58.067,0.112,84.858c21.587,3.614,36.285,10.828,45.601,17.252
		C910.263,676.187,932.257,630.616,911.416,590.154z M823.207,890.497c0.031-0.399,0.098-0.789,0.173-1.177
		c-2.216-10.142-7.463-25.971-19.487-35.196c-14.343,22.161-30.999,43.776-48.794,63.877c9.051,15.406,12.37,30.805,13.236,43.216
		C782.41,956.541,819.424,939.653,823.207,890.497z M873.272,802.572c-5.164-9.335-15.204-24.409-29.172-31.641
		c-1.239,4.232-2.538,8.279-3.909,12.077c-7.078,19.604-17.009,39.57-28.887,59.25c13.241,9.6,20.182,24.497,23.771,36.47
		C847.697,871.192,876.945,848.598,873.272,802.572z M789.123,266.042c-4.183,0.463-16.358,2.859-28.719,15.171
		c12.041,14.215,22.613,28.385,31.67,42.474c7.707,11.99,14.697,25.314,21.018,39.648c11.408-9.265,22.093-12.582,30.629-13.321
		C840.599,337.454,826.636,290.148,789.123,266.042z M827.077,778.269c-34.02,94.205-135.139,197.132-204.615,230.587
		c-24.388,11.74-47.623,20.386-69.058,25.7c-7.667,1.901-6.397,13.743,1.662,13.743c0.558,0,1.12-0.065,1.685-0.204
		c9.475-2.348,19.287-5.35,29.351-8.912c-0.043,40.944-10.404,61.618-15.474,69.267c-19.355,24.09-46.726,21.467-57.841,19.106
		c-24.627-5.229-44.199-22.486-48.699-42.943c-28.814-130.941-80.547-374.59-126.189-589.558
		c-18.404-86.684-35.92-169.169-50.726-238.599c11.393,9.439,26.455,17.217,43.897,17.217c8.147,0,16.812-1.696,25.845-5.711
		c3.87-1.721,4.587-5.602,3.388-8.751c11.858-5.379,21.811-14.101,27.595-25.662c0.246,0.117,0.466,0.251,0.739,0.349
		c28.122,10.082,57.093-8.799,71.5-31.857c1.231-1.976,1.338-3.938,0.759-5.634c3.13-7.001,5.329-15.267,6.593-24.625
		c16.34-6.263,26.619-18.654,32.129-32.721c1.667-0.514,3.159-1.737,4.059-3.867c13.937-32.938,2.838-53.317-6.867-63.683
		c56.606-5.021,86.092,25.15,94.044,34.88c-7.783,5.237-13.114,13.043-17.448,21.449c-1.445-0.852-2.284-1.334-2.424-1.413
		c-7.806-4.455-14.834,7.583-6.922,12.103c0.123,0.072,12.671,7.265,31.849,19.937c7.663,5.022,15.065-6.759,7.676-11.644
		c-7.082-4.679-13.222-8.591-18.219-11.708c5.395-10.717,11.06-17.855,20.357-20.336c42.691,8.609,76.096,48.254,85.137,59.929
		c-6.533,4.324-14.771,11.205-20.235,20.887c-3.292-2.634-6.622-5.267-10.01-7.899c-7.101-5.515-15.76,5.414-8.561,11.009
		c57.108,44.348,100.272,88.935,128.289,132.518C853.921,445.678,861.257,683.615,827.077,778.269z M501.427,624.273
		c0-18.021-14.608-32.63-32.629-32.63s-32.63,14.609-32.63,32.63c0,18.021,14.609,32.63,32.63,32.63
		S501.427,642.294,501.427,624.273z M533.98,1038.48c-8.845,1.321-13.628,1.294-13.782,1.3c-9.028,0.363-9.245,13.784-0.224,13.944
		c0.024,0,0.112,0,0.262,0c1.239,0,6.674-0.089,15.809-1.456C544.97,1050.933,542.919,1037.057,533.98,1038.48z M620.437,175.254
		c4.185,2.967,8.527,6.094,12.984,9.37c7.415,5.45,15.494-5.919,8.266-11.229c-4.524-3.324-8.926-6.497-13.179-9.512
		C621.171,158.682,613.007,169.987,620.437,175.254z M646.586,652.166c0.002-13.528-20.911-13.528-20.916-0.008
		c-0.008,22.461-34.856,22.552-34.86,0.008c-0.003-13.176-20.915-13.548-20.916-0.005c-0.003,24.662,19.173,37.049,38.348,37.076
		C627.413,689.263,646.583,676.934,646.586,652.166z M665.707,233.729c-11.774-10.427-19.536-16.698-19.863-16.957
		c-10.828-8.722-23.396,8.174-13.131,16.28c0.107,0.084,7.773,6.282,19.139,16.344c2.222,1.971,4.633,2.706,6.928,2.561
		C666.726,251.459,673.267,240.424,665.707,233.729z M780.311,624.273c0-18.021-14.608-32.63-32.629-32.63
		c-18.021,0-32.63,14.609-32.63,32.63c0,18.021,14.609,32.63,32.63,32.63C765.703,656.903,780.311,642.294,780.311,624.273z
		 M810.211,471.546c-12.902-72.54-46.572-138.731-97.079-192.146c-9.438-9.981-24.299,4.749-15.196,14.375
		c47.785,50.529,79.355,112.784,91.688,181.463c1.067,5.942,5.677,8.368,10.281,8.128
		C805.685,483.064,811.459,478.563,810.211,471.546z"/>
	<path fill="#D98B57" d="M499.62,139.062c-5.511,14.067-15.79,26.458-32.13,32.721c-1.265,9.359-3.463,17.624-6.593,24.625
		c-1.653-4.842-9.004-7.475-12.587-1.753c-22.81,36.498-53.53,26.611-55.005,26.101c-8.199-2.832-12.862,9.243-5.406,12.794
		c-5.784,11.56-15.737,20.283-27.595,25.662c-1.285-3.378-4.777-5.911-9.035-3.997c-22.27,9.895-40.633,1.968-53.014-7.713
		c7.482,1.482,15.618,1.74,23.927-0.393c17.349-4.453,31.157-17.876,41.128-39.943c12.133,1.049,34.452,0.589,52.801-13.124
		c12.893-9.633,21.358-23.793,25.276-42.21c4.899,3.333,10.908,6.42,17.707,7.884c0.493,0.106,0.985,0.157,1.47,0.157
		c7.805,0.004,9.735-12.008,1.465-13.788c-4.043-0.871-7.774-2.616-11.022-4.622c18.091-5.872,30.497-15.561,36.963-28.928
		c3.694-7.635,4.899-15.483,4.794-22.739c4.102,8.676,5.818,21.652-1.923,39.957C488.246,135.887,494.703,140.579,499.62,139.062z"
		/>
</g>
</svg>
